<svg id="Layer_1" enable-background="new 0 0 512 512" height="512" viewBox="0 0 512 512" width="512" xmlns="http://www.w3.org/2000/svg"><g><path d="m202.48 446.423c.018-.076.031-.152.048-.228.08-.374.15-.749.201-1.127.021-.148.033-.296.049-.444.032-.306.061-.611.075-.918.011-.228.009-.455.01-.683 0-.228.001-.455-.01-.683-.013-.307-.042-.612-.075-.918-.016-.148-.029-.297-.049-.444-.051-.378-.121-.753-.201-1.127-.016-.076-.03-.152-.048-.228-.1-.435-.222-.866-.362-1.292-.005-.015-.009-.031-.015-.046-.661-1.998-1.74-3.893-3.272-5.531-.422-.451-.872-.86-1.333-1.248l-43.251-40.459c-6.051-5.66-15.542-5.344-21.201.707-5.659 6.05-5.343 15.542.707 21.201l32.144 30.069-32.144 30.069c-6.05 5.659-6.366 15.151-.707 21.201 2.953 3.157 6.95 4.753 10.957 4.753 3.672 0 7.352-1.34 10.244-4.046l43.238-40.447c.467-.391.92-.804 1.347-1.26 1.532-1.638 2.611-3.532 3.272-5.53.005-.016.01-.031.015-.047.139-.429.261-.859.361-1.294z" fill="#4793ff"/><g><path d="m15 346c-8.284 0-15-6.716-15-15v-158.868c0-40.826 33.214-74.04 74.04-74.04s74.04 33.214 74.04 74.04v18.338c0 7.245-5.178 13.454-12.305 14.756-7.117 1.303-14.165-2.675-16.727-9.453-2.208-5.846-7.855-9.773-14.048-9.773-8.271 0-15 6.729-15 15v70c0 41.355-33.645 75-75 75z" fill="#ff435b"/></g><g><path d="m469.022 132.393c-3.163 0-6.286-1-8.896-2.922-3.839-2.827-6.105-7.311-6.105-12.078v-17.393c0-4.768 2.267-9.251 6.105-12.079 3.841-2.827 8.797-3.659 13.347-2.246l27.979 8.696c6.273 1.95 10.548 7.755 10.548 14.324s-4.274 12.375-10.547 14.324l-27.979 8.697c-1.459.454-2.96.677-4.452.677z" fill="#00347b"/></g><g><path d="m300.999 512c-8.284 0-15-6.716-15-15v-148c0-8.284 6.716-15 15-15s15 6.716 15 15v148c0 8.284-6.716 15-15 15z" fill="#00429d"/></g><path d="m300.999 334v178c8.284 0 15-6.716 15-15v-148c0-8.284-6.716-15-15-15z" fill="#00347b"/><g><path d="m452.096 127.408c-.014 0-.025 0-.039 0l-161.095-.408c-8.214-.021-14.884-6.645-14.961-14.859-.341-36.156 9.994-65.88 29.886-85.96 16.967-17.128 39.941-26.181 66.437-26.181 53.132 0 96.357 43.226 96.357 96.357 0 6.378-.632 12.769-1.879 18.995-1.403 7.012-7.56 12.056-14.706 12.056z" fill="#ff8856"/></g><g><path d="m472.999 458.045h-344c-8.284 0-15-6.716-15-15s6.716-15 15-15h344c8.284 0 15 6.716 15 15s-6.716 15-15 15z" fill="#7dd5f4"/></g><g><path d="m299.929 382.041c-99.213 0-179.929-81.233-179.929-181.081 0-8.284 6.716-15 15-15h200.847v-80.747c0-39.704 32.302-72.006 72.006-72.006 39.703 0 72.005 32.302 72.005 72.006v95.747c-.001 99.848-80.716 181.081-179.929 181.081z" fill="#ffde46"/></g><path d="m407.853 33.208c-39.704 0-72.006 32.302-72.006 72.006v80.747h-34.848v196.066c98.721-.583 178.858-81.579 178.858-181.066v-95.747c0-39.705-32.301-72.006-72.004-72.006z" fill="#ffcd00"/><path clip-rule="evenodd" d="m408 128c8.262 0 15-6.739 15-15 0-8.262-6.739-15-15-15-8.262 0-15 6.738-15 15s6.738 15 15 15z" fill="#00429d" fill-rule="evenodd"/><path d="m472.999 428.045h-172v30h172c8.284 0 15-6.716 15-15s-6.716-15-15-15z" fill="#4793ff"/><g><path d="m451.887 494.046c-3.053 0-6.134-.929-8.794-2.859-6.706-4.864-8.199-14.243-3.336-20.949l19.625-27.056-19.543-26.217c-4.951-6.642-3.58-16.04 3.062-20.991s16.039-3.581 20.991 3.062l26.135 35.06c3.922 5.261 3.969 12.46.116 17.772l-26.101 35.984c-2.935 4.045-7.513 6.194-12.155 6.194z" fill="#525cdd"/></g></g></svg>