<svg id="Layer_1" enable-background="new 0 0 512 512" height="512" viewBox="0 0 512 512" width="512" xmlns="http://www.w3.org/2000/svg"><g><path d="m438.036 211.999c0-100.354-81.645-181.999-182-181.999-100.354 0-181.999 81.645-181.999 181.999v252.42c17.459-6.192 30-22.865 30-42.42v-210c0-83.812 68.187-151.999 151.999-151.999 83.813 0 152 68.187 152 151.999v79.999c0 19.555 12.541 36.228 30 42.42z" fill="#ff8856"/><path d="m256.036 30c-.012 0-.024 0-.036 0v30h.036c83.813 0 152 68.187 152 151.999v79.999c0 19.555 12.541 36.228 30 42.42v-122.419c0-100.354-81.644-181.999-182-181.999z" fill="#ff435b"/><path d="m119.037 406.999c-8.284 0-15-6.716-15-15v-179.999c0-83.813 68.187-152 151.999-152 83.813 0 152 68.187 152 152v89.999c0 8.284-6.716 15-15 15s-15-6.716-15-15v-89.999c0-67.271-54.729-122-122-122s-121.999 54.729-121.999 122v179.999c0 8.284-6.716 15-15 15z" fill="#fdbf00"/><path d="m256.036 60c-.012 0-.024 0-.036 0v30h.036c67.271 0 122 54.729 122 122v89.999c0 8.284 6.716 15 15 15s15-6.716 15-15v-89.999c0-83.813-68.186-152-152-152z" fill="#ff8856"/><g><path d="m179.037 441.471c-8.284 0-15-6.716-15-15v-214.47c0-50.729 41.271-92 91.999-92s92 41.271 92 92v79.997c0 8.284-6.716 15-15 15s-15-6.716-15-15v-79.997c0-34.187-27.813-62-62-62s-61.999 27.813-61.999 62v214.47c0 8.284-6.716 15-15 15z" fill="#7dd5f4"/></g><path d="m256.036 120.001c-.012 0-.024 0-.036 0v30c.012 0 .024-.001.036-.001 34.187 0 62 27.813 62 62v79.997c0 8.284 6.716 15 15 15s15-6.716 15-15v-79.997c0-50.728-41.271-91.999-92-91.999z" fill="#4793ff"/><path d="m59.037 414.499c-8.284 0-15-6.716-15-15v-187.5c0-56.409 22.111-109.587 62.262-149.737s93.328-62.262 149.737-62.262 109.588 22.112 149.738 62.263c40.149 40.149 62.262 93.327 62.262 149.736v69.279c0 8.284-6.716 15-15 15s-15-6.716-15-15v-69.279c0-100.354-81.645-181.999-182-181.999-100.354 0-181.999 81.645-181.999 181.999v187.5c0 8.284-6.716 15-15 15z" fill="#ff435b"/><path d="m405.774 62.263c-40.15-40.151-93.329-62.263-149.738-62.263-.012 0-.024 0-.036 0v30h.036c100.355 0 182 81.645 182 181.999v69.279c0 8.284 6.716 15 15 15s15-6.716 15-15v-69.279c0-56.409-22.112-109.587-62.262-149.736z" fill="#cc2e43"/><path d="m378.036 212c0-67.271-54.729-122-122-122s-121.999 54.729-121.999 122v222.419c17.459-6.192 30-22.865 30-42.42v-179.999c0-50.729 41.271-92 91.999-92s92 41.271 92 92v89.999c0 19.555 12.541 36.228 30 42.42z" fill="#bee75e"/><path d="m256.036 90c-.012 0-.024 0-.036 0v30h.036c50.729 0 92 41.271 92 92v89.999c0 19.555 12.541 36.228 30 42.42v-132.419c0-67.271-54.728-122-122-122z" fill="#00cb75"/><g><path d="m128 512c-15.834 0-30.035-7.603-38.774-19.758-5.414 2.594-11.4 4-17.529 4-17.161 0-32.066-10.818-37.943-26.136-7.366-1.266-14.32-4.549-20.031-9.594-8.721-7.701-13.723-18.794-13.723-30.433 0-20.113 14.695-36.858 33.912-40.062 6-15.098 20.845-25.758 37.784-25.758 6.093 0 12.047 1.391 17.439 3.959 8.795-12.227 23.176-20.06 38.864-20.06 15.687 0 30.068 7.832 38.864 20.06 5.392-2.567 11.348-3.959 17.44-3.959 16.943 0 31.79 10.663 37.787 25.767 7.418 1.244 14.424 4.534 20.172 9.607 8.73 7.703 13.737 18.801 13.737 30.446 0 11.639-5.002 22.731-13.722 30.433-5.71 5.044-12.665 8.328-20.03 9.594-5.878 15.317-20.784 26.136-37.943 26.136-6.13 0-12.116-1.406-17.529-4-8.74 12.155-22.941 19.758-38.775 19.758z" fill="#fff4f4"/></g><g><path d="m386.555 362.5c-15.308 0-29.111-7.008-38.046-18.342-5.014 2.095-10.445 3.219-15.991 3.219-17.054 0-31.933-10.437-38.293-25.395-7.006-1.459-13.596-4.714-19.068-9.547-8.928-7.886-14.048-19.242-14.048-31.157 0-20.091 14.322-36.899 33.293-40.751 6.474-14.737 21.285-25.019 38.116-25.019 5.512 0 10.916 1.113 15.907 3.187 8.999-11.42 22.962-18.639 38.13-18.639 15.167 0 29.131 7.22 38.129 18.639 4.992-2.073 10.396-3.187 15.908-3.187 16.836 0 31.649 10.285 38.12 25.029 7.063 1.44 13.71 4.704 19.226 9.571 8.937 7.886 14.063 19.247 14.063 31.169 0 11.915-5.12 23.271-14.048 31.157-5.473 4.833-12.063 8.088-19.068 9.547-6.359 14.958-21.238 25.395-38.292 25.395-5.547 0-10.978-1.124-15.991-3.219-8.936 11.335-22.739 18.343-38.047 18.343z" fill="#f6efea"/></g></g></svg>