<svg id="Layer_1" enable-background="new 0 0 512 512" height="512" viewBox="0 0 512 512" width="512" xmlns="http://www.w3.org/2000/svg"><g><g><g><path d="m256 512c-141.159 0-256-114.841-256-256s114.841-256 256-256 256 114.841 256 256-114.841 256-256 256z" fill="#fff4f4"/></g></g><path d="m256 0v512c141.159 0 256-114.841 256-256s-114.841-256-256-256z" fill="#f6efea"/><g><path d="m172.5 209c-24.813 0-45-20.187-45-45s20.187-45 45-45 45 20.187 45 45-20.187 45-45 45zm0-60c-8.271 0-15 6.729-15 15s6.729 15 15 15 15-6.729 15-15-6.729-15-15-15z" fill="#4793ff"/></g><g><path d="m372.002 391h-40.002c-41.355 0-75-33.645-75-75v-115c0-41.354 33.645-74.999 75-74.999h40c8.284 0 15 6.716 15 15s-6.716 15-15 15h-40c-24.813 0-45 20.187-45 44.999v115c0 24.813 20.187 45 45 45h40.002c8.284 0 15 6.716 15 15s-6.716 15-15 15z" fill="#525cdd"/></g></g></svg>