<svg id="Layer_1" enable-background="new 0 0 512.131 512.131" height="512" viewBox="0 0 512.131 512.131" width="512" xmlns="http://www.w3.org/2000/svg"><g><g><path d="m254.644 512.131c-7.544 0-13.915-5.604-14.877-13.086l-42.001-326.457-16.736 56.661c-1.883 6.376-7.738 10.751-14.386 10.751s-12.502-4.375-14.386-10.751l-20.078-67.976-40.239 265.971c-1.109 7.334-7.413 12.756-14.831 12.756s-13.722-5.422-14.831-12.756l-62.029-410c-.654-4.321.609-8.712 3.459-12.025s7.002-5.219 11.372-5.219h481.969c4.334 0 8.456 1.875 11.305 5.141 2.849 3.267 4.146 7.605 3.556 11.898l-62.029 451.999c-1.019 7.427-7.364 12.961-14.86 12.961s-13.842-5.534-14.86-12.961l-34.323-250.107-25.624 141.666c-1.291 7.139-7.506 12.33-14.761 12.33s-13.469-5.191-14.761-12.33l-25.337-140.075-35.834 278.523c-.963 7.482-7.334 13.086-14.878 13.086z" fill="#fff4f4"/></g><path d="m508.355 5.141c-2.849-3.266-6.971-5.141-11.305-5.141h-240.985v512.063c6.909-.652 12.554-6.011 13.455-13.018l35.834-278.523 25.337 140.075c1.292 7.139 7.506 12.33 14.761 12.33s13.47-5.191 14.761-12.33l25.624-141.666 34.323 250.107c1.019 7.427 7.364 12.961 14.86 12.961s13.842-5.534 14.86-12.961l62.03-451.999c.59-4.293-.707-8.632-3.555-11.898z" fill="#f6efea"/></g></svg>