<svg id="Layer_1" enable-background="new 0 0 511.994 511.994" height="512" viewBox="0 0 511.994 511.994" width="512" xmlns="http://www.w3.org/2000/svg"><g><g><path d="m406.743 204.997h-7c-8.284 0-15-6.716-15-15s6.716-15 15-15h7c8.284 0 15 6.716 15 15s-6.716 15-15 15z" fill="#001737"/></g><g><path d="m406.743 264.997h-7c-8.284 0-15-6.716-15-15s6.716-15 15-15h7c8.284 0 15 6.716 15 15s-6.716 15-15 15z" fill="#001737"/></g><g><path d="m351.743 115.997h-212c-4.542 0-8.84-2.059-11.687-5.598s-3.938-8.178-2.965-12.614c3.786-17.271 18.552-69.605 22.147-85.999 1.51-6.882 7.606-11.786 14.652-11.786h167.688c7.045 0 13.141 4.902 14.651 11.783 3.596 16.382 18.376 68.717 22.166 86.002.973 4.437-.118 9.075-2.965 12.614s-7.145 5.598-11.687 5.598z" fill="#4793ff"/></g><path d="m366.396 97.785c-3.79-17.285-18.57-69.62-22.166-86.002-1.511-6.881-7.607-11.783-14.652-11.783h-83.835v115.997h106c4.542 0 8.84-2.059 11.688-5.598 2.846-3.539 3.937-8.177 2.965-12.614z" fill="#525cdd"/><g><path d="m329.578 511.994h-167.688c-7.046 0-13.142-4.904-14.652-11.786-3.596-16.394-18.361-68.728-22.147-85.999-.973-4.437.118-9.075 2.965-12.614s7.145-5.598 11.687-5.598h212c4.542 0 8.84 2.059 11.688 5.598 2.847 3.539 3.938 8.178 2.965 12.614-3.79 17.285-18.57 69.62-22.166 86.002-1.511 6.881-7.607 11.783-14.652 11.783z" fill="#4793ff"/></g><path d="m363.431 401.595c-2.848-3.539-7.146-5.598-11.688-5.598h-106v115.997h83.835c7.045 0 13.141-4.902 14.651-11.783 3.596-16.382 18.376-68.717 22.166-86.002.973-4.437-.118-9.075-2.964-12.614z" fill="#525cdd"/><path clip-rule="evenodd" d="m135.356 100.997h220.773c16.558 0 30.105 13.547 30.105 30.105v249.789c0 16.558-13.547 30.105-30.105 30.105h-220.773c-16.558 0-30.105-13.547-30.105-30.105v-249.789c0-16.558 13.547-30.105 30.105-30.105z" fill="#fff4f4" fill-rule="evenodd"/><path clip-rule="evenodd" d="m356.129 100.997h-110.386v309.999h110.386c16.558 0 30.105-13.547 30.105-30.105v-249.789c0-16.558-13.547-30.105-30.105-30.105z" fill="#f6efea" fill-rule="evenodd"/><g><path d="m356.129 425.997h-220.773c-24.871 0-45.105-20.234-45.105-45.105v-249.789c0-24.871 20.234-45.105 45.105-45.105h220.772c24.871 0 45.105 20.234 45.105 45.105v249.789c.001 24.871-20.233 45.105-45.104 45.105zm-220.773-310c-8.329 0-15.105 6.776-15.105 15.105v249.789c0 8.329 6.776 15.105 15.105 15.105h220.772c8.329 0 15.105-6.776 15.105-15.105v-249.788c0-8.329-6.776-15.105-15.105-15.105h-220.772z" fill="#00429d"/></g><g><path d="m245.743 350.505c-3.42 0-6.841-1.165-9.626-3.496l-20.846-17.445-27.075-2.404c-7.236-.643-12.971-6.379-13.614-13.614l-2.404-27.075-17.445-20.846c-4.662-5.571-4.662-13.683 0-19.254l17.445-20.846 2.404-27.076c.643-7.236 6.379-12.972 13.615-13.614l27.075-2.403 20.846-17.445c5.572-4.662 13.683-4.663 19.253 0l20.846 17.445 27.074 2.403c7.236.643 12.973 6.378 13.615 13.614l2.404 27.076 17.444 20.846c4.662 5.571 4.662 13.683 0 19.254l-17.444 20.845-2.404 27.075c-.643 7.235-6.379 12.972-13.614 13.614l-27.075 2.404-20.846 17.444c-2.787 2.332-6.207 3.498-9.628 3.498z" fill="#fdbf00"/></g><path d="m336.754 246.37-17.444-20.846-2.404-27.076c-.643-7.236-6.379-12.972-13.615-13.614l-27.074-2.403-20.846-17.445c-2.786-2.332-6.206-3.497-9.627-3.497v189.016c3.42 0 6.841-1.166 9.626-3.497l20.846-17.444 27.075-2.404c7.235-.643 12.972-6.379 13.614-13.614l2.404-27.075 17.444-20.846c4.663-5.572 4.663-13.684.001-19.255z" fill="#ff8856"/><path d="m356.129 85.997h-110.386v30h110.386c8.329 0 15.105 6.776 15.105 15.105v249.789c0 8.329-6.776 15.105-15.105 15.105h-110.386v30h110.386c24.871 0 45.105-20.234 45.105-45.105v-249.788c0-24.872-20.234-45.106-45.105-45.106z" fill="#00347b"/></g></svg>