<svg id="Layer_1" enable-background="new 0 0 512.005 512.005" height="512" viewBox="0 0 512.005 512.005" width="512" xmlns="http://www.w3.org/2000/svg"><g><path d="m124.003 59.001c-8.284 0-15 6.716-15 15v27h-29.998v-27c0-8.284-6.716-15-15-15s-15 6.716-15 15v93c0 8.284 6.716 15 15 15s15-6.716 15-15v-36h29.999v36c0 8.284 6.716 15 15 15s15-6.716 15-15v-93c-.001-8.284-6.717-15-15.001-15z" fill="#7dd5f4"/><g><path d="m465.004 480.001h-43c-8.284 0-15-6.716-15-15v-69c0-8.284 6.716-15 15-15s15 6.716 15 15v54h28c8.284 0 15 6.716 15 15s-6.716 15-15 15z" fill="#ff435b"/></g><g><path d="m81.206 247.164c-24.054 0-47.514-2.724-69.729-8.096-8.052-1.947-13.001-10.054-11.054-18.105s10.054-13.001 18.105-11.055c19.908 4.814 40.996 7.256 62.677 7.256 45.086 0 87.252-10.521 118.733-29.626 29.139-17.684 45.187-40.396 45.187-63.955s-16.047-46.272-45.187-63.956c-31.48-19.104-73.647-29.626-118.733-29.626-21.682 0-42.77 2.441-62.677 7.256-8.053 1.946-16.159-3.002-18.105-11.054-1.947-8.053 3.001-16.159 11.054-18.106 22.214-5.372 45.674-8.096 69.729-8.096 50.497 0 98.191 12.067 134.297 33.979 38.448 23.333 59.623 55.154 59.623 89.603 0 34.447-21.174 66.269-59.623 89.602-36.106 21.912-83.8 33.979-134.297 33.979z" fill="#7dd5f4"/></g><g><path d="m57.827 334.558c-14.843 0-29.758-.747-44.332-2.22-8.242-.833-14.249-8.189-13.416-16.432.833-8.244 8.183-14.252 16.432-13.416 13.575 1.372 27.476 2.067 41.315 2.067 74.288 0 157.316-19.764 222.1-52.867 66.235-33.845 104.223-76.941 104.223-118.239 0-36.256-28.956-73.767-81.533-105.621-7.085-4.293-9.349-13.517-5.057-20.602 4.293-7.085 13.518-9.348 20.602-5.057 29.102 17.632 52.101 37.155 68.36 58.029 18.333 23.537 27.628 48.182 27.628 73.25 0 53.745-42.82 105.224-120.573 144.954-68.808 35.163-156.939 56.154-235.749 56.154z" fill="#7dd5f4"/></g><g><path d="m250.791 512.004c-5.209 0-10.271-2.717-13.039-7.564-9.786-17.133-14.748-35.112-14.748-53.439 0-22.189 7.218-39.517 22.066-52.971 12.417-11.252 28.756-18.565 46.054-26.309 38.846-17.388 82.875-37.096 109.859-108.053 7.804-20.52 20.955-35.449 39.088-44.372 15.974-7.861 35.582-10.808 58.279-8.762 8.251.744 14.336 8.036 13.592 16.287-.744 8.25-8.032 14.327-16.287 13.592-34.958-3.149-56.754 7.942-66.632 33.919-31.408 82.59-85.874 106.97-125.644 124.771-34.933 15.637-50.377 23.736-50.377 51.897 0 13.043 3.633 26.017 10.798 38.561 4.109 7.193 1.608 16.355-5.585 20.465-2.346 1.341-4.902 1.978-7.424 1.978z" fill="#ff8856"/></g><g><path d="m101.993 512.005c-6.365 0-12.271-4.083-14.296-10.475-6.51-20.551-9.811-41.648-9.811-62.707 0-44.003 13.532-76.76 42.587-103.088 25.169-22.807 59.806-38.311 96.476-54.725 13.146-5.885 26.74-11.969 40.56-18.653 7.456-3.606 16.427-.485 20.034 6.973s.485 16.428-6.973 20.035c-14.22 6.877-28.02 13.054-41.365 19.027-35.926 16.081-66.953 29.969-88.588 49.573-22.636 20.513-32.731 45.45-32.731 80.857 0 17.981 2.83 36.031 8.41 53.648 2.501 7.897-1.873 16.327-9.77 18.829-1.506.479-3.033.706-4.533.706z" fill="#7dd5f4"/></g><path d="m256.004 69.371v108.423c12.518-16.573 19.123-34.982 19.123-54.211-.001-19.229-6.605-37.639-19.123-54.212z" fill="#4793ff"/><path d="m386.523 60.202c-16.259-20.874-39.259-40.397-68.36-58.029-7.084-4.291-16.309-2.028-20.602 5.057-4.292 7.085-2.029 16.309 5.057 20.602 52.578 31.854 81.533 69.365 81.533 105.621 0 41.298-37.988 84.395-104.223 118.239-7.728 3.949-15.722 7.702-23.924 11.26v32.491c13.007-5.229 25.589-10.912 37.574-17.037 77.752-39.73 120.573-91.209 120.573-144.954 0-25.069-9.296-49.713-27.628-73.25z" fill="#4793ff"/><g fill="#ff435b"><path d="m256.004 471.436v39.619c.752-.281 1.493-.617 2.213-1.028 7.193-4.109 9.694-13.271 5.585-20.465-3.403-5.958-6-12.013-7.798-18.126z"/><path d="m498.351 210.535c-22.697-2.046-42.306.9-58.279 8.762-18.134 8.923-31.285 23.853-39.088 44.372-26.984 70.957-71.013 90.665-109.86 108.053-12.6 5.64-24.683 11.06-35.121 17.932v43.463c6.008-14.828 21.234-22.311 47.377-34.013 39.77-17.801 94.236-42.181 125.644-124.771 9.878-25.977 31.674-37.068 66.632-33.919 8.254.735 15.542-5.342 16.287-13.592.744-8.25-5.341-15.542-13.592-16.287z"/></g></g></svg>