<svg id="Layer_1" enable-background="new 0 0 511.998 511.998" height="512" viewBox="0 0 511.998 511.998" width="512" xmlns="http://www.w3.org/2000/svg"><g><g><path d="m255.999 511.998c-38.849 0-93.687-55.304-132.053-107.06-23.045-31.087-42.61-64.045-56.581-95.312-16.168-36.185-24.366-68.694-24.366-96.626 0-117.448 95.551-213 213-213 117.448 0 213 95.552 213 213 0 27.932-8.198 60.441-24.366 96.627-13.971 31.267-33.536 64.225-56.58 95.312-38.366 51.755-93.205 107.059-132.054 107.059z" fill="#ff435b"/></g><path d="m255.999 0v511.998c38.849 0 93.687-55.304 132.053-107.06 23.044-31.087 42.609-64.045 56.58-95.312 16.168-36.186 24.366-68.695 24.366-96.627.001-117.447-95.55-212.999-212.999-212.999z" fill="#cc2e43"/><g><path d="m302.314 242.098h-77.24c-44.415 0-80.55-36.134-80.55-80.549s36.135-80.55 80.55-80.55c25.56 0 49.243 12.029 64.328 32.058 4.222-.851 8.536-1.278 12.912-1.278 35.929 0 65.159 29.23 65.159 65.16.001 35.928-29.23 65.159-65.159 65.159z" fill="#fff4f4"/></g><g><path d="m195.999 336.999c-8.284 0-15-6.716-15-15v-35.5c0-8.284 6.716-15 15-15s15 6.716 15 15v35.5c0 8.284-6.716 15-15 15z" fill="#fff4f4"/></g><g><path d="m255.999 382.499c-8.284 0-15-6.716-15-15v-81c0-8.284 6.716-15 15-15s15 6.716 15 15v81c0 8.284-6.716 15-15 15z" fill="#fff4f4"/></g><g><path d="m316 336.999c-8.284 0-15-6.716-15-15v-35.5c0-8.284 6.716-15 15-15s15 6.716 15 15v35.5c0 8.284-6.716 15-15 15z" fill="#f6efea"/></g><g fill="#f6efea"><path d="m302.314 111.778c-4.376 0-8.69.428-12.912 1.278-8.702-11.554-20.269-20.438-33.403-25.894v154.935h46.315c35.929 0 65.159-29.23 65.159-65.159.001-35.929-29.23-65.16-65.159-65.16z"/><path d="m255.999 271.499v111c8.284 0 15-6.716 15-15v-81c0-8.284-6.716-15-15-15z"/></g></g></svg>