<svg id="Layer_1" enable-background="new 0 0 512.166 512.166" height="512" viewBox="0 0 512.166 512.166" width="512" xmlns="http://www.w3.org/2000/svg"><g><g><g><path d="m485.042 357h-354c-8.284 0-15-6.716-15-15v-319c0-8.284 6.716-15 15-15h354c8.284 0 15 6.716 15 15v319c0 8.284-6.716 15-15 15z" fill="#fff4f4"/></g></g><path d="m485.042 8h-177v349h177c8.284 0 15-6.716 15-15v-319c0-8.284-6.716-15-15-15z" fill="#f6efea"/><g><path d="m15.042 512.166c-3.979 0-7.794-1.58-10.607-4.394-2.813-2.813-4.394-6.628-4.394-10.606v-99.558c0-33.906 27.489-61.49 61.278-61.49h138.835c33.789 0 61.278 27.584 61.278 61.49v99.553c0 8.284-6.715 15-15 15z" fill="#7dd5f4"/></g><path d="m200.155 336.118h-69.417v176.045l115.696-.002c8.284 0 15-6.716 15-15v-99.553c0-33.906-27.49-61.49-61.279-61.49z" fill="#4793ff"/><g><path d="m497.125 30h-378.166c-8.284 0-15-6.716-15-15s6.716-15 15-15h378.165c8.284 0 15 6.716 15 15s-6.715 15-14.999 15z" fill="#00429d"/></g><g><path d="m369.292 189c-2.966 0-5.932-1.011-8.348-3.033l-11.708-9.798-15.208-1.351c-6.274-.558-11.248-5.532-11.805-11.806l-1.351-15.207-9.798-11.708c-4.043-4.831-4.043-11.865 0-16.696l9.798-11.708 1.351-15.207c.557-6.275 5.531-11.249 11.806-11.806l15.207-1.35 11.708-9.798c4.831-4.043 11.864-4.043 16.695 0l11.708 9.798 15.207 1.35c6.275.557 11.249 5.531 11.806 11.806l1.351 15.207 9.798 11.708c4.043 4.831 4.043 11.865 0 16.696l-9.798 11.708-1.351 15.207c-.557 6.274-5.531 11.248-11.805 11.806l-15.208 1.351-11.708 9.798c-2.415 2.022-5.381 3.033-8.347 3.033z" fill="#ff8856"/></g><g><path d="m364.845 268.085h-67.619c-39.913 0-72.384-32.472-72.384-72.384 0-39.913 32.472-72.385 72.384-72.385 22.571 0 43.516 10.44 57.098 27.881 3.449-.622 6.962-.936 10.521-.936 32.484 0 58.912 26.428 58.912 58.912-.001 32.484-26.428 58.912-58.912 58.912z" fill="#f6efea"/></g><path clip-rule="evenodd" d="m130.738 306.166c16.501 0 30 13.5 30 30v23c0 16.5-13.5 30-30 30-16.5 0-30-13.5-30-30v-23c0-16.5 13.499-30 30-30z" fill="#fdd1a3" fill-rule="evenodd"/><path clip-rule="evenodd" d="m130.738 306.166v83c16.5 0 30-13.5 30-30v-23c0-16.5-13.499-30-30-30z" fill="#ffbb85" fill-rule="evenodd"/><path d="m130.738 404.166c-24.813 0-45-20.187-45-45v-23c0-24.813 20.187-45 45-45s45 20.187 45 45v23c0 24.813-20.187 45-45 45zm0-83c-8.271 0-15 6.729-15 15v23c0 8.271 6.729 15 15 15s15-6.729 15-15v-23c0-8.271-6.729-15-15-15z" fill="#4793ff"/><path d="m130.738 291.166v30c8.271 0 15 6.729 15 15v23c0 8.271-6.729 15-15 15v30c24.813 0 45-20.187 45-45v-23c0-24.813-20.187-45-45-45z" fill="#525cdd"/><path d="m50.853 250.998c-1.111 5.357-1.698 10.904-1.698 16.585 0 44.985 36.599 81.584 81.584 81.584s81.583-36.599 81.583-81.584c0-5.682-.588-11.228-1.698-16.585z" fill="#ffe4c1"/><path d="m210.623 250.998h-79.885v98.169c44.985 0 81.583-36.599 81.583-81.584.001-5.682-.587-11.228-1.698-16.585z" fill="#fdd1a3"/><path clip-rule="evenodd" d="m49.98 256.083h161.515c-5.608-39.557-39.677-70.084-80.757-70.084s-75.15 30.527-80.758 70.084z" fill="#00347b" fill-rule="evenodd"/><path clip-rule="evenodd" d="m130.738 256.083h80.757c-5.608-39.557-39.677-70.084-80.757-70.084z" fill="#001737" fill-rule="evenodd"/><path d="m364.845 150.262c-3.558 0-7.072.313-10.521.936-11.382-14.615-27.936-24.311-46.283-27.069v143.957h56.803c32.484 0 58.912-26.428 58.912-58.911 0-32.486-26.427-58.913-58.911-58.913z" fill="#eee1dc"/><path d="m497.125 0h-189.083v30h189.083c8.284 0 15-6.716 15-15s-6.716-15-15-15z" fill="#00347b"/></g></svg>