<svg height="400pt" viewBox="0 -4 400.00578 400" width="400pt" xmlns="http://www.w3.org/2000/svg" xmlns:xlink="http://www.w3.org/1999/xlink"><linearGradient id="a"><stop offset=".322" stop-color="#a163f5"/><stop offset=".466" stop-color="#b074ee"/><stop offset=".752" stop-color="#d8a1dd"/><stop offset=".898" stop-color="#efbad3"/></linearGradient><linearGradient id="b" gradientTransform="matrix(1 0 0 -1 -55.999609 453.668324)" gradientUnits="userSpaceOnUse" x1="105.255" x2="109.082" xlink:href="#a" y1="-36.059" y2="476.762"/><linearGradient id="c" gradientTransform="matrix(1 0 0 -1 -55.999609 453.668324)" gradientUnits="userSpaceOnUse" x1="402.342" x2="406.169" xlink:href="#a" y1="-38.276" y2="474.545"/><linearGradient id="d" gradientTransform="matrix(1 0 0 -1 -55.999609 453.668324)" gradientUnits="userSpaceOnUse" x1="253.791" x2="257.618" xlink:href="#a" y1="-37.167" y2="475.653"/><path d="m98.753906 93.558594c-4.167968-3.625-10.484375-3.183594-14.109375.988281l-82.191406 94.5625c-3.269531 3.761719-3.269531 9.355469 0 13.117187l82.191406 94.566407c3.625 4.167969 9.941407 4.609375 14.109375.984375 4.167969-3.625 4.609375-9.941406.988282-14.109375l-76.492188-88 76.492188-88c3.621093-4.167969 3.183593-10.484375-.984376-14.109375zm0 0" fill="url(#b)"/><path d="m315.355469 94.546875c-3.625-4.167969-9.941407-4.613281-14.109375-.988281-4.167969 3.625-4.609375 9.941406-.984375 14.109375l76.488281 88-76.488281 88c-3.625 4.171875-3.179688 10.488281.988281 14.109375 4.167969 3.625 10.488281 3.183594 14.109375-.988282l82.195313-94.5625c3.269531-3.761718 3.269531-9.359374 0-13.121093zm0 0" fill="url(#c)"/><path d="m289.832031.921875c-5.011719-2.3125-10.953125-.121094-13.269531 4.890625l-171.285156 371.332031c-2.332032 5.007813-.160156 10.957031 4.847656 13.285157 5.007812 2.328124 10.957031.15625 13.285156-4.851563l.027344-.054687 171.289062-371.332032c2.3125-5.015625.121094-10.957031-4.894531-13.269531zm0 0" fill="url(#d)"/></svg>