<svg height="496pt" viewBox="0 0 496 496.384" width="496pt" xmlns="http://www.w3.org/2000/svg" xmlns:xlink="http://www.w3.org/1999/xlink"><linearGradient id="a" gradientUnits="userSpaceOnUse" x1="248.192" x2="248.192" y1="496.3832" y2="0"><stop offset="0" stop-color="#9f2fff"/><stop offset="1" stop-color="#0bb1d3"/></linearGradient><path d="m136.191406 152c0 4.414062-3.582031 8-8 8-4.414062 0-8-3.585938-8-8s3.585938-8 8-8c4.417969 0 8 3.585938 8 8zm72-8c-4.414062 0-8 3.585938-8 8s3.585938 8 8 8c4.417969 0 8-3.585938 8-8s-3.582031-8-8-8zm-40 72c-8.824218 0-16-7.175781-16-16h-16c0 17.648438 14.351563 32 32 32 17.648438 0 32-14.351562 32-32h-16c0 8.824219-7.175781 16-16 16zm154.152344 98.535156-37.65625 37.65625 37.65625 37.65625 11.3125-11.3125-26.34375-26.34375 26.34375-26.34375zm48 11.3125 26.34375 26.34375-26.34375 26.34375 11.3125 11.3125 37.65625-37.65625-37.65625-37.65625zm-34.238281 73.03125 15.78125 2.625 16-96-15.78125-2.625zm111.894531-46.6875c0 52.9375-43.0625 96-96 96s-96-43.0625-96-96c0-52.933594 43.0625-96 96-96s96 43.066406 96 96zm-16 0c0-44.113281-35.886719-80-80-80s-80 35.886719-80 80c0 44.113282 35.886719 80 80 80s80-35.886718 80-80zm44.792969-28.191406 19.398437 6.414062v43.5625l-19.398437 6.40625c-3.207031 14.335938-8.777344 27.808594-16.59375 40.160157l9.160156 18.210937-30.800781 30.796875-18.207032-9.160156c-12.351562 7.824219-25.824218 13.386719-40.160156 16.59375l-6.414062 19.398437h-43.5625l-6.40625-19.398437c-14.335938-3.207031-27.808594-8.777344-40.160156-16.59375l-18.207032 9.160156-30.800781-30.796875 3.398437-6.753906h-237.847656v-77.40625c0-24.144531 15.394532-45.496094 38.289063-53.121094l12.320312-4.113281c-26.59375-9.894531-40.234375-27.527344-41.007812-28.558594l-5.320313-7.097656 7.597656-4.558594c22.289063-13.367187 36.121094-37.816406 36.121094-63.792969v-73.351562c0-66.167969 53.832032-120 120-120 66.167969 0 120 53.832031 120 120v66.335938c0 17.039062 5.640625 33.65625 15.832032 47.257812 6.390624-2.578125 12.984374-4.664062 19.792968-6.195312l6.398438-19.398438h43.5625l6.414062 19.398438c14.335938 3.210937 27.808594 8.777343 40.160156 16.59375l18.207032-9.160157 30.800781 30.800781-9.160156 18.207032c7.824219 12.351562 13.386719 25.824218 16.59375 40.160156zm-203.65625-124.984375c-5.695313 4.59375-12.609375 7.601563-20.234375 8.511719-5.789063 20.839844-19.03125 38.578125-36.710938 50.136718v16.574219l27.359375 9.121094-8.910156-17.71875 30.800781-30.800781 18.207032 9.160156c1.863281-1.175781 3.800781-2.207031 5.710937-3.28125-8.671875-12.414062-14.191406-26.742188-16.222656-41.703125zm-45.929688 124.984375c2.039063-9.128906 5.144531-17.847656 9.074219-26.207031l-25.929688-8.640625-30.335937 30.335937 27.792969 23.34375v-12.417969zm-27.015625-47.3125v-10.800781c-9.933594 3.898437-20.703125 6.113281-32 6.113281s-22.0625-2.214844-32-6.113281v10.800781l32 32zm-43.3125 43.3125-30.847656-30.847656-27.046875 9.015625 30.664063 49.0625zm83.3125-136v-56h-144v56c0 39.703125 32.296875 72 72 72s72-32.296875 72-72zm32-16c0-10.414062-6.710937-19.214844-16-22.527344v38.527344c0 2.238281-.167968 4.433594-.335937 6.632812 9.464843-3.21875 16.335937-12.097656 16.335937-22.632812zm-208-48v16.207031c4.671875-3.535156 10.054688-6.183593 16-7.390625v-16.816406h176v16.808594c5.945313 1.214844 11.328125 3.855468 16 7.390625v-16.199219c0-57.34375-46.65625-104-104-104s-104 46.65625-104 104zm0 48c0 10.535156 6.871094 19.414062 16.335938 22.632812-.167969-2.199218-.335938-4.394531-.335938-6.632812v-38.527344c-9.289062 3.3125-16 12.113282-16 22.527344zm16.054688 119.550781 39.945312-13.320312v-16.574219c-17.679687-11.558594-30.910156-29.304688-36.710937-50.136719-7.359375-.878906-14.074219-3.695312-19.65625-8.03125-1.808594 25.984375-14.769531 50.167969-35.433594 65.886719 8.304687 7.722656 25.578125 20.007812 51.855469 22.175781zm-64.054688 128.449219h39.496094c-4.855469-8.433594-7.496094-18.007812-7.496094-28 0-14.808594 5.679688-28.734375 16-39.304688v-12.695312h16v19.3125l-4.199218 4.199219c-7.617188 7.617187-11.800782 17.726562-11.800782 28.488281 0 10.542969 4.074219 20.449219 11.402344 28h165.597656c-6.40625-11.105469-11.160156-23-13.984375-35.617188l-19.398437-6.40625v-10.25l-39.152344-32.886718-41.921875 41.921875-43.09375-68.953125c-.480469-.015625-.960937-.03125-1.425781-.054688l-38.671875 12.886719c-16.359375 5.464844-27.351563 20.710937-27.351563 37.953125zm464-74.023438-17.304687-5.730468-.863281-4.644532c-2.863282-15.457031-8.808594-29.816406-17.640626-42.699218l-2.679687-3.894532 8.167969-16.230468-14.457032-14.457032-16.230468 8.167969-3.894532-2.679687c-12.882812-8.832032-27.242187-14.777344-42.695312-17.640625l-4.648438-.863281-5.730468-17.304688h-20.4375l-5.722656 17.304688-4.648438.863281c-15.453125 2.863281-29.8125 8.808593-42.695312 17.640625l-3.894532 2.679687-16.230468-8.167969-14.457032 14.457032 8.167969 16.230468-2.679687 3.894532c-8.832032 12.882812-14.777344 27.242187-17.640626 42.699218l-.863281 4.644532-17.304687 5.730468v20.4375l17.304687 5.722657.863281 4.648437c2.863282 15.453125 8.808594 29.816406 17.640626 42.695313l2.679687 3.894531-8.167969 16.234375 14.457032 14.453125 16.230468-8.167969 3.894532 2.679688c12.882812 8.832031 27.242187 14.777343 42.695312 17.640625l4.648438.863281 5.722656 17.304687h20.4375l5.730468-17.304687 4.648438-.863281c15.453125-2.863282 29.8125-8.808594 42.695312-17.640625l3.894532-2.679688 16.230468 8.167969 14.457032-14.453125-8.167969-16.234375 2.679687-3.894531c8.832032-12.878907 14.777344-27.242188 17.640626-42.695313l.863281-4.648437 17.304687-5.722657zm0 0" fill="url(#a)"/></svg>