<svg id="Layer_1" enable-background="new 0 0 512 512" height="512" viewBox="0 0 512 512" width="512" xmlns="http://www.w3.org/2000/svg"><g><g><path d="m256 90c-24.813 0-45-20.187-45-45s20.187-45 45-45 45 20.187 45 45-20.187 45-45 45zm0-60c-8.271 0-15 6.729-15 15s6.729 15 15 15 15-6.729 15-15-6.729-15-15-15z" fill="#00347b"/></g><path d="m256 0v30c8.271 0 15 6.729 15 15s-6.729 15-15 15v30c24.813 0 45-20.187 45-45s-20.187-45-45-45z" fill="#001737"/><ellipse clip-rule="evenodd" cx="256" cy="284.802" fill="#fff4f4" fill-rule="evenodd" rx="212.038" ry="212.038" transform="matrix(.707 -.707 .707 .707 -126.405 264.436)"/><path clip-rule="evenodd" d="m256 72.765v424.075h.001c116.786 0 212.038-95.251 212.038-212.038-.001-116.786-95.253-212.037-212.039-212.037z" fill="#f6efea" fill-rule="evenodd"/><path d="m256 512c-125.277 0-227.198-101.92-227.198-227.197s101.921-227.198 227.198-227.198 227.198 101.921 227.198 227.198-101.921 227.197-227.198 227.197zm0-424.075c-108.559 0-196.878 88.319-196.878 196.878s88.319 196.877 196.878 196.877 196.878-88.319 196.878-196.878-88.319-196.877-196.878-196.877z" fill="#00429d"/><path d="m373.313 171.037c-.21-.238-.413-.481-.641-.709-.241-.241-.496-.456-.749-.677-29.852-29.443-70.811-47.651-115.923-47.651-45.305 0-86.404 18.336-116.279 47.972-.13.121-.267.229-.393.356-.106.106-.195.221-.297.328-29.788 29.896-48.229 71.105-48.229 116.542 0 8.284 6.716 15 15 15 .792 0 17.198-.198 17.198-.198 8.284 0 15-6.716 15-15s-6.716-15-15-15h-1.339c2.925-26.026 13.266-49.837 28.857-69.269l.83.83c2.929 2.929 6.768 4.394 10.606 4.394s7.678-1.464 10.606-4.394c5.858-5.858 5.858-15.355 0-21.213l-.808-.808c19.441-15.533 43.242-25.819 69.247-28.703v1.163c0 8.284 6.716 15 15 15s15-6.716 15-15v-1.162c25.995 2.886 49.794 13.177 69.236 28.713l-.797.797c-5.858 5.858-5.858 15.355 0 21.213 2.929 2.929 6.768 4.394 10.606 4.394s7.678-1.464 10.606-4.394l.819-.819c15.594 19.431 25.94 43.24 28.867 69.258h-1.336c-8.284 0-15 6.716-15 15s6.716 15 15 15c0 0 17.211-.002 17.218-.002 8.284-.011 14.991-6.736 14.98-15.02-.061-45.153-18.355-86.121-47.885-115.941z" fill="#7dd5f4"/><g><path d="m246.948 311.25c-3.839 0-7.678-1.464-10.606-4.394-5.858-5.858-5.858-15.355 0-21.213l66.467-66.468c5.857-5.858 15.355-5.858 21.213 0s5.858 15.355 0 21.213l-66.467 66.468c-2.93 2.93-6.768 4.394-10.607 4.394z" fill="#fdbf00"/></g><path d="m324.021 219.176c-5.857-5.858-15.355-5.858-21.213 0l-46.808 46.81v42.207c.538-.409 1.063-.844 1.555-1.335l66.467-66.468c5.857-5.859 5.857-15.356-.001-21.214z" fill="#ff8856"/><g><path d="m342 425h-172c-8.284 0-15-6.716-15-15s6.716-15 15-15h172c8.284 0 15 6.716 15 15s-6.716 15-15 15z" fill="#fdbf00"/></g><g><path d="m250.748 339.152c-.293 0-.586-.008-.883-.026-8.271-.48-14.585-7.574-14.105-15.844.248-4.269-1.344-8.452-4.368-11.476-3.071-3.071-7.317-4.662-11.65-4.357-8.271.581-15.431-5.655-16.008-13.919s5.655-15.431 13.919-16.008c13-.912 25.738 3.856 34.952 13.071 9.072 9.071 13.848 21.62 13.104 34.427-.463 7.975-7.076 14.131-14.961 14.132z" fill="#fdbf00"/></g><path d="m373.313 171.037c-.21-.238-.413-.481-.641-.709-.241-.241-.496-.456-.749-.677-29.852-29.443-70.811-47.651-115.923-47.651v47c8.284 0 15-6.716 15-15v-1.162c25.995 2.886 49.794 13.177 69.236 28.713l-.797.797c-5.858 5.858-5.858 15.355 0 21.213 2.929 2.929 6.768 4.394 10.606 4.394s7.678-1.464 10.606-4.394l.819-.819c15.594 19.431 25.94 43.24 28.867 69.258h-1.337c-8.284 0-15 6.716-15 15s6.716 15 15 15c0 0 17.211-.002 17.218-.002 8.284-.011 14.991-6.736 14.98-15.02-.061-45.153-18.355-86.121-47.885-115.941z" fill="#4793ff"/><path d="m256 57.605v30.32c108.559 0 196.878 88.319 196.878 196.878s-88.319 196.877-196.878 196.877v30.32c125.277 0 227.198-101.92 227.198-227.197s-101.921-227.198-227.198-227.198z" fill="#00347b"/><path d="m342 395h-86v30h86c8.284 0 15-6.716 15-15s-6.716-15-15-15z" fill="#ff8856"/></g></svg>