<svg id="Layer_1" enable-background="new 0 0 512 512" height="512" viewBox="0 0 512 512" width="512" xmlns="http://www.w3.org/2000/svg"><g><path clip-rule="evenodd" d="m226 238h60v187h-60z" fill="#fff4f4" fill-rule="evenodd"/><path clip-rule="evenodd" d="m256 238h30v187h-30z" fill="#f6efea" fill-rule="evenodd"/><g><path d="m256 47c-8.284 0-15-6.716-15-15v-17c0-8.284 6.716-15 15-15s15 6.716 15 15v17c0 8.284-6.716 15-15 15z" fill="#fff4f4"/></g><path d="m256 0v47c8.284 0 15-6.716 15-15v-17c0-8.284-6.716-15-15-15z" fill="#f6efea"/><g><g><g><path d="m482.996 253h-453.992c-8.263 0-14.965-6.681-15-14.936l-.004-.348c0-56.051 25.487-108.602 71.768-147.972 45.584-38.778 106.041-60.134 170.232-60.134s124.648 21.356 170.232 60.135c46.28 39.37 71.768 91.92 71.768 147.972l-.004.358c-.04 8.25-6.74 14.925-15 14.925zm-468.99-14.815h.01z" fill="#bee75e"/></g></g></g><path d="m426.232 89.745c-45.584-38.779-106.041-60.135-170.232-60.135v223.39h226.996c8.26 0 14.96-6.675 15-14.925l.004-.358c0-56.052-25.487-108.603-71.768-147.972z" fill="#4793ff"/><g><path d="m183.678 111.205c-14.423 41.122-23.246 92.061-24.718 141.795h194.08c-1.472-49.734-10.295-100.673-24.717-141.795-18.722-53.38-43.731-81.595-72.323-81.595s-53.601 28.215-72.322 81.595z" fill="#ff8856"/></g><path clip-rule="evenodd" d="m312 452-26-.035v-31.965h-60v32c0 33.081 26.922 60 60 60h26c16.523 0 30-13.477 30-30s-13.477-30-30-30z" fill="#fdbf00" fill-rule="evenodd"/><path clip-rule="evenodd" d="m312 452-26-.035v-31.965h-30v83.926c8.833 5.124 19.076 8.074 30 8.074h26c16.523 0 30-13.477 30-30s-13.477-30-30-30z" fill="#ff8856" fill-rule="evenodd"/><path d="m256 253h97.04c-1.472-49.734-10.295-100.673-24.717-141.795-18.722-53.38-43.731-81.595-72.323-81.595z" fill="#ff435b"/></g></svg>