<svg id="Layer_1" enable-background="new 0 0 512 512" height="512" viewBox="0 0 512 512" width="512" xmlns="http://www.w3.org/2000/svg"><g><g><path d="m256 512c-141.159 0-256-114.841-256-256s114.841-256 256-256 256 114.841 256 256-114.841 256-256 256z" fill="#fff4f4"/></g><path d="m256 0v512c141.159 0 256-114.841 256-256s-114.841-256-256-256z" fill="#f6efea"/><g><path d="m163.181 209.001c-24.813 0-45-20.188-45-45.001s20.187-45 45-45 45.001 20.187 45.001 45-20.188 45.001-45.001 45.001zm0-60.001c-8.271 0-15 6.729-15 15s6.729 15.001 15 15.001 15.001-6.729 15.001-15.001-6.73-15-15.001-15z" fill="#4793ff"/></g><path d="m356.402 229.001h-84.998v-73h85c8.284 0 15-6.716 15-15s-6.716-15-15-15h-100c-8.284 0-15 6.716-15 15v234.999c0 8.284 6.716 15 15 15s15-6.716 15-15v-116.999h84.998c8.284 0 15-6.716 15-15s-6.715-15-15-15z" fill="#4793ff"/><path d="m356.402 229.001h-84.998v-73h85c8.284 0 15-6.716 15-15s-6.716-15-15-15h-100c-.136 0-.269.017-.404.02v264.959c.136.004.268.02.404.02 8.284 0 15-6.716 15-15v-116.999h84.998c8.284 0 15-6.716 15-15s-6.715-15-15-15z" fill="#525cdd"/></g></svg>