<svg id="Layer_1" enable-background="new 0 0 512.079 512.079" height="512" viewBox="0 0 512.079 512.079" width="512" xmlns="http://www.w3.org/2000/svg"><g><g><g><path d="m228.04 352.693c-68.712 0-124.614-55.901-124.614-124.613 0-68.713 55.902-124.614 124.614-124.614s124.614 55.901 124.614 124.614c0 68.711-55.902 124.613-124.614 124.613z" fill="#fdbf00"/></g></g><path d="m228.04 103.465v249.228c68.712 0 124.614-55.901 124.614-124.613 0-68.714-55.902-124.615-124.614-124.615z" fill="#ff8856"/><g><path d="m228.04 75.691c-8.284 0-15-6.716-15-15v-45.652c0-8.284 6.716-15 15-15s15 6.716 15 15v45.651c0 8.285-6.716 15.001-15 15.001z" fill="#fdbf00"/></g><g><path d="m60.651 243.078h-45.651c-8.284 0-15-6.716-15-15s6.716-15 15-15h45.651c8.284 0 15 6.716 15 15s-6.716 15-15 15z" fill="#fdbf00"/></g><g><path d="m346.402 124.718c-3.839 0-7.678-1.465-10.606-4.394-5.858-5.857-5.858-15.355 0-21.213l32.28-32.28c5.857-5.857 15.355-5.857 21.213 0s5.858 15.355 0 21.213l-32.28 32.28c-2.929 2.929-6.768 4.394-10.607 4.394z" fill="#ff8856"/></g><g><path d="m77.397 393.721c-3.839 0-7.678-1.465-10.606-4.394-5.858-5.857-5.858-15.355 0-21.213l32.28-32.28c5.857-5.857 15.355-5.857 21.213 0s5.858 15.355 0 21.213l-32.28 32.28c-2.929 2.929-6.768 4.394-10.607 4.394z" fill="#fdbf00"/></g><g><path d="m109.678 124.717c-3.839 0-7.677-1.464-10.606-4.394l-32.28-32.28c-5.858-5.857-5.858-15.355 0-21.213s15.355-5.858 21.213 0l32.28 32.28c5.858 5.857 5.858 15.355 0 21.213-2.929 2.929-6.768 4.394-10.607 4.394z" fill="#fdbf00"/></g><g><path d="m292.272 88.511c-1.919 0-3.868-.37-5.751-1.152-7.649-3.18-11.273-11.958-8.095-19.608l17.52-42.155c3.18-7.649 11.959-11.272 19.608-8.095 7.649 3.18 11.273 11.958 8.095 19.608l-17.52 42.155c-2.397 5.767-7.978 9.247-13.857 9.247z" fill="#ff8856"/></g><g><path d="m73.462 178.845c-1.919 0-3.869-.37-5.75-1.152l-42.155-17.52c-7.65-3.18-11.274-11.958-8.095-19.608 3.18-7.65 11.961-11.272 19.608-8.095l42.155 17.52c7.65 3.18 11.274 11.958 8.095 19.608-2.398 5.767-7.979 9.247-13.858 9.247z" fill="#fdbf00"/></g><g><path d="m31.127 324.378c-5.893 0-11.482-3.494-13.871-9.28-3.162-7.657.483-16.428 8.141-19.589l42.197-17.42c7.657-3.16 16.428.483 19.588 8.142 3.161 7.657-.483 16.428-8.141 19.589l-42.197 17.42c-1.871.772-3.81 1.138-5.717 1.138z" fill="#fdbf00"/></g><g><path d="m164.17 88.361c-5.893 0-11.482-3.495-13.871-9.28l-17.42-42.196c-3.161-7.657.483-16.428 8.141-19.589 7.659-3.16 16.428.483 19.589 8.142l17.42 42.196c3.162 7.657-.483 16.427-8.141 19.589-1.872.771-3.81 1.138-5.718 1.138z" fill="#fdbf00"/></g><g><g><path d="m341.79 512.039c-93.898 0-170.29-76.392-170.29-170.289 0-93.898 76.392-170.29 170.29-170.29 93.897 0 170.289 76.392 170.289 170.29s-76.392 170.289-170.289 170.289z" fill="#fff4f4"/></g></g><path d="m341.79 171.46v340.579c93.897 0 170.289-76.392 170.289-170.289 0-93.898-76.392-170.29-170.289-170.29z" fill="#f6efea"/><g><ellipse clip-rule="evenodd" cx="255.797" cy="351.04" fill="#f6efea" fill-rule="evenodd" rx="48.5" ry="48.5" transform="matrix(.977 -.215 .215 .977 -69.42 63.125)"/></g><g><circle clip-rule="evenodd" cx="393.066" cy="252.628" fill="#eee1dc" fill-rule="evenodd" r="30"/></g><g><circle clip-rule="evenodd" cx="410.901" cy="431.04" fill="#eee1dc" fill-rule="evenodd" r="30"/></g><path d="m228.04.039v75.651c8.284 0 15-6.716 15-15v-45.651c0-8.284-6.716-15-15-15z" fill="#ff8856"/></g></svg>