<svg id="Layer_1" enable-background="new 0 0 512 512" height="512" viewBox="0 0 512 512" width="512" xmlns="http://www.w3.org/2000/svg"><g><path clip-rule="evenodd" d="m136 15h240c16.5 0 30 13.5 30 30v422c0 16.5-13.5 30-30 30h-240c-16.5 0-30-13.5-30-30v-422c0-16.5 13.5-30 30-30z" fill="#fff4f4" fill-rule="evenodd"/><path clip-rule="evenodd" d="m376 15h-120v482h120c16.5 0 30-13.5 30-30v-422c0-16.5-13.5-30-30-30z" fill="#f6efea" fill-rule="evenodd"/><path d="m376 0h-240c-24.813 0-45 20.187-45 45v422c0 24.813 20.187 45 45 45h240c24.813 0 45-20.187 45-45v-422c0-24.813-20.187-45-45-45zm15 467c0 8.271-6.729 15-15 15h-240c-8.271 0-15-6.729-15-15v-422c0-8.271 6.729-15 15-15h38.952l3.351 6.254c7.968 14.869 22.795 23.746 39.664 23.746h74.077c16.873 0 31.702-8.88 39.668-23.752l3.347-6.248h40.941c8.271 0 15 6.729 15 15z" fill="#00429d"/><g><path d="m288.61 244.775c-3.42 0-6.841-1.166-9.627-3.497l-14.042-11.752-18.238-1.619c-7.236-.643-12.972-6.378-13.614-13.614l-1.62-18.238-11.751-14.044c-4.662-5.57-4.662-13.682 0-19.253l11.751-14.042 1.62-18.239c.643-7.236 6.378-12.972 13.614-13.614l18.238-1.619 14.042-11.752c5.571-4.662 13.683-4.662 19.254 0l14.042 11.752 18.238 1.619c7.236.643 12.972 6.378 13.614 13.614l1.62 18.239 11.751 14.042c4.662 5.571 4.662 13.683 0 19.253l-11.751 14.044-1.62 18.238c-.643 7.236-6.378 12.972-13.614 13.614l-18.238 1.619-14.042 11.752c-2.786 2.331-6.207 3.497-9.627 3.497z" fill="#fdbf00"/></g><path d="m357.503 162.758-11.751-14.042-1.62-18.239c-.643-7.236-6.378-12.972-13.614-13.614l-18.238-1.619-14.042-11.752c-5.571-4.662-13.683-4.662-19.254 0l-14.042 11.752-8.94.794v112.696l8.94.794 14.042 11.752c2.786 2.331 6.207 3.497 9.627 3.497s6.841-1.166 9.627-3.497l14.042-11.752 18.238-1.619c7.236-.643 12.972-6.378 13.614-13.614l1.62-18.238 11.751-14.044c4.663-5.573 4.663-13.684 0-19.255z" fill="#ff8856"/><path d="m293.701 307h-69.754c-40.913 0-74.197-33.285-74.197-74.197s33.285-74.196 74.197-74.196c23.234 0 44.786 10.792 58.703 28.806 3.62-.671 7.312-1.009 11.051-1.009 33.249 0 60.299 27.05 60.299 60.299 0 33.247-27.05 60.297-60.299 60.297z" fill="#f6efea"/><g><path d="m346 367.001h-180c-8.284 0-15-6.716-15-15s6.716-15 15-15h180c8.284 0 15 6.716 15 15s-6.716 15-15 15z" fill="#4793ff"/></g><g><path d="m327.062 426.001h-142.124c-8.284 0-15-6.716-15-15s6.716-15 15-15h142.124c8.284 0 15 6.716 15 15s-6.716 15-15 15z" fill="#4793ff"/></g><path d="m346 337.001h-90v30h90c8.284 0 15-6.716 15-15s-6.716-15-15-15z" fill="#525cdd"/><path d="m327.062 396.001h-71.062v30h71.062c8.284 0 15-6.716 15-15s-6.716-15-15-15z" fill="#525cdd"/><path d="m293.701 186.403c-3.74 0-7.431.338-11.051 1.009-7.14-9.242-16.294-16.577-26.65-21.535v141.123h37.701c33.249 0 60.299-27.05 60.299-60.298 0-33.249-27.05-60.299-60.299-60.299z" fill="#eee1dc"/><path d="m376 0h-120v60h36.044c16.873 0 31.702-8.88 39.668-23.752l3.347-6.248h40.941c8.271 0 15 6.729 15 15v422c0 8.271-6.729 15-15 15h-120v30h120c24.813 0 45-20.187 45-45v-422c0-24.813-20.187-45-45-45z" fill="#00347b"/></g></svg>