<svg id="Layer_1" enable-background="new 0 0 512 512" height="512" viewBox="0 0 512 512" width="512" xmlns="http://www.w3.org/2000/svg"><g><g><path clip-rule="evenodd" d="m21.381 22.234h465.702v318.638h-465.702z" fill="#fff4f4" fill-rule="evenodd"/></g><path clip-rule="evenodd" d="m256 22.234h231.083v318.638h-231.083z" fill="#f6efea" fill-rule="evenodd"/><path d="m375.91 482h-30v-76c0-8.284-6.716-15-15-15h-150c-8.284 0-15 6.716-15 15v76h-30c-8.284 0-15 6.716-15 15s6.716 15 15 15h240c8.284 0 15-6.716 15-15s-6.716-15-15-15z" fill="#4793ff"/><path d="m375.91 482h-30v-76c0-8.284-6.716-15-15-15h-74.91v121h119.91c8.284 0 15-6.716 15-15s-6.716-15-15-15z" fill="#525cdd"/><g><path d="m378.26 218.02c-3.42 0-6.841-1.166-9.626-3.496l-14.541-12.169-18.886-1.678c-7.236-.644-12.971-6.379-13.613-13.614l-1.678-18.886-12.168-14.54c-4.663-5.571-4.663-13.683 0-19.254l12.168-14.541 1.678-18.886c.643-7.235 6.378-12.972 13.614-13.614l18.886-1.677 14.541-12.169c5.571-4.66 13.682-4.66 19.253 0l14.541 12.169 18.886 1.677c7.236.643 12.971 6.379 13.614 13.614l1.678 18.887 12.168 14.541c4.662 5.57 4.662 13.682 0 19.253l-12.168 14.54-1.678 18.886c-.643 7.235-6.377 12.971-13.613 13.614l-18.886 1.678-14.541 12.169c-2.788 2.33-6.208 3.496-9.629 3.496z" fill="#ff8856"/></g><g><path d="m383.495 282h-71.723c-41.833 0-75.867-34.034-75.867-75.867s34.034-75.867 75.867-75.867c23.845 0 45.958 11.116 60.183 29.66 3.779-.718 7.633-1.079 11.54-1.079 33.954 0 61.577 27.623 61.577 61.576 0 33.954-27.623 61.577-61.577 61.577z" fill="#f6efea"/></g><g><path d="m190.9 100.001h-115.99c-8.284 0-15-6.716-15-15s6.716-15 15-15h115.99c8.284 0 15 6.716 15 15s-6.716 15-15 15z" fill="#7dd5f4"/></g><g><path d="m190.9 160.001h-115.99c-8.284 0-15-6.716-15-15s6.716-15 15-15h115.99c8.284 0 15 6.716 15 15s-6.716 15-15 15z" fill="#7dd5f4"/></g><g><path d="m190.9 220h-115.99c-8.284 0-15-6.716-15-15s6.716-15 15-15h115.99c8.284 0 15 6.716 15 15s-6.716 15-15 15z" fill="#7dd5f4"/></g><g><path clip-rule="evenodd" d="m74.911 280c8.262 0 15-6.738 15-15s-6.738-15-15-15-15 6.738-15 15c-.001 8.262 6.738 15 15 15z" fill="#bee75e" fill-rule="evenodd"/></g><g><path clip-rule="evenodd" d="m132.911 280c8.262 0 15-6.738 15-15s-6.738-15-15-15-15 6.738-15 15 6.738 15 15 15z" fill="#ff8856" fill-rule="evenodd"/></g><g><path clip-rule="evenodd" d="m191.411 280c8.262 0 15-6.738 15-15s-6.738-15-15-15-15 6.738-15 15c-.001 8.262 6.738 15 15 15z" fill="#ff435b" fill-rule="evenodd"/></g><path clip-rule="evenodd" d="m497 0h-482c-8.284 0-15 6.716-15 15v390.967c0 8.284 6.716 15 15 15h482c8.284 0 15-6.716 15-15v-390.967c0-8.284-6.716-15-15-15zm-15 30v300.966h-452v-300.966z" fill="#00429d" fill-rule="evenodd"/><path d="m383.495 158.847c-3.907 0-7.761.361-11.54 1.079-14.225-18.544-36.337-29.66-60.183-29.66-22.036 0-41.899 9.45-55.772 24.502v102.729c13.873 15.053 33.737 24.503 55.772 24.503h71.723c33.954 0 61.577-27.623 61.577-61.577 0-33.953-27.623-61.576-61.577-61.576z" fill="#eee1dc"/><path clip-rule="evenodd" d="m497 0h-241v30h226v300.966h-226v90.001h241c8.284 0 15-6.716 15-15v-390.967c0-8.284-6.716-15-15-15z" fill="#00347b" fill-rule="evenodd"/></g></svg>