<svg id="Layer_1" enable-background="new 0 0 512 512" height="512" viewBox="0 0 512 512" width="512" xmlns="http://www.w3.org/2000/svg"><g><path clip-rule="evenodd" d="m60.66 87.001h399.319v303.749h-399.319z" fill="#fff4f4" fill-rule="evenodd"/><path clip-rule="evenodd" d="m256 87.001h203.979v303.749h-203.979z" fill="#f6efea" fill-rule="evenodd"/><g><path d="m459 406.25h-406c-8.284 0-15-6.716-15-15v-315c0-8.284 6.716-15 15-15h406c8.284 0 15 6.716 15 15v315c0 8.284-6.716 15-15 15zm-391-30h376v-285h-376z" fill="#4793ff"/></g><g><path d="m437 450.75h-362c-41.355 0-75-33.645-75-75 0-8.284 6.716-15 15-15h482c8.284 0 15 6.716 15 15 0 41.355-33.645 75-75 75z" fill="#00429d"/></g><g><path d="m289.797 267.79c-3.421 0-6.841-1.165-9.627-3.497l-14.341-12.001-18.627-1.654c-7.236-.644-12.972-6.379-13.614-13.614l-1.653-18.627-12.001-14.34c-4.662-5.571-4.662-13.683 0-19.254l12.001-14.34 1.653-18.627c.643-7.236 6.378-12.972 13.614-13.615l18.627-1.654 14.341-12.001c5.572-4.662 13.683-4.663 19.253-.001l14.343 12.002 18.626 1.654c7.236.644 12.971 6.378 13.614 13.614l1.654 18.627 12.001 14.341c4.662 5.571 4.662 13.683 0 19.254l-12.001 14.341-1.654 18.626c-.644 7.236-6.378 12.971-13.614 13.614l-18.626 1.654-14.343 12.002c-2.785 2.33-6.206 3.496-9.626 3.496z" fill="#fdbf00"/></g><path d="m359.661 184.803-12.001-14.341-1.654-18.627c-.644-7.236-6.378-12.971-13.614-13.614l-18.626-1.654-14.343-12.002c-5.57-4.662-13.681-4.661-19.253.001l-14.341 12.001-9.829.872v113.98l9.829.873 14.341 12.001c2.786 2.332 6.206 3.497 9.627 3.497 3.42 0 6.841-1.166 9.626-3.496l14.343-12.002 18.626-1.654c7.236-.644 12.971-6.378 13.614-13.614l1.654-18.626 12.001-14.341c4.662-5.572 4.662-13.683 0-19.254z" fill="#ff8856"/><path d="m459 61.25h-203v30h188v285h-188v30h203c8.284 0 15-6.716 15-15v-315c0-8.284-6.716-15-15-15z" fill="#525cdd"/><path d="m497 360.75h-241v90h181c41.355 0 75-33.645 75-75 0-8.284-6.716-15-15-15z" fill="#00347b"/><g><path d="m294.975 331.068h-70.935c-41.465 0-75.198-33.733-75.198-75.198s33.733-75.199 75.198-75.199c23.603 0 45.489 10.985 59.591 29.318 3.715-.699 7.504-1.051 11.344-1.051 33.672 0 61.065 27.394 61.065 61.064 0 33.673-27.394 61.066-61.065 61.066z" fill="#f6efea"/></g><path d="m294.975 208.938c-3.84 0-7.629.352-11.344 1.051-7.371-9.583-16.872-17.153-27.631-22.201v143.28h38.975c33.672 0 61.065-27.394 61.065-61.065s-27.394-61.065-61.065-61.065z" fill="#eee1dc"/></g></svg>