<svg id="Layer_1" enable-background="new 0 0 512.042 512.042" height="512" viewBox="0 0 512.042 512.042" width="512" xmlns="http://www.w3.org/2000/svg"><g><g><path d="m13.157 512.018c-2.153 0-4.311-.528-6.272-1.592-4.243-2.3-6.885-6.739-6.885-11.566v-281.572c0-21.766 17.708-39.474 39.474-39.474h237.719c21.766 0 39.474 17.707 39.474 39.474v210.526c0 21.766-17.708 39.474-39.474 39.474h-191.393l-65.465 42.602c-2.175 1.414-4.674 2.128-7.178 2.128z" fill="#bee75e"/></g><g><path d="m497.04 399.31c-1.744 0-3.503-.304-5.198-.931l-83.671-30.924c-27.945 14.785-59.296 22.568-91.129 22.568-107.523 0-195-87.477-195-195s87.477-195 195-195 195 87.477 195 195c0 37.297-10.468 73.255-30.347 104.493l29.417 79.593c2.03 5.493.678 11.666-3.463 15.807-2.864 2.865-6.699 4.394-10.609 4.394z" fill="#4793ff"/></g><path d="m511.112 379.11-29.417-79.593c19.879-31.238 30.347-67.196 30.347-104.493 0-107.523-87.476-195-195-195v390c31.833 0 63.183-7.783 91.129-22.568l83.671 30.924c1.694.627 3.454.931 5.198.931 3.91 0 7.745-1.529 10.609-4.394 4.141-4.141 5.493-10.314 3.463-15.807z" fill="#525cdd"/><g><path d="m346.368 228.497c-3.42 0-6.841-1.166-9.626-3.497l-13.502-11.299-17.537-1.557c-7.236-.643-12.972-6.378-13.614-13.614l-1.558-17.537-11.299-13.503c-4.662-5.57-4.662-13.682 0-19.252l11.299-13.503 1.558-17.536c.643-7.235 6.378-12.971 13.614-13.614l17.538-1.558 13.502-11.299c5.571-4.66 13.681-4.661 19.252 0l13.501 11.299 17.538 1.558c7.235.644 12.971 6.379 13.613 13.614l1.558 17.536 11.299 13.502c4.662 5.571 4.662 13.683 0 19.254l-11.299 13.502-1.558 17.537c-.643 7.236-6.378 12.972-13.614 13.614l-17.537 1.557-13.502 11.299c-2.785 2.331-6.206 3.497-9.626 3.497z" fill="#fdbf00"/></g><path d="m413.503 148.237-11.299-13.502-1.558-17.536c-.643-7.235-6.378-12.971-13.613-13.614l-17.538-1.558-13.501-11.299c-5.571-4.661-13.681-4.66-19.252 0l-13.502 11.299-6.197.55v110.573l6.197.55 13.501 11.3c2.786 2.331 6.206 3.497 9.626 3.497s6.841-1.166 9.626-3.497l13.501-11.299 17.537-1.557c7.236-.643 12.972-6.378 13.614-13.614l1.558-17.537 11.299-13.502c4.664-5.571 4.664-13.683.001-19.254z" fill="#ff8856"/><g><path d="m351.303 288.817h-67.618c-39.913 0-72.385-32.472-72.385-72.385 0-39.912 32.472-72.384 72.385-72.384 22.571 0 43.515 10.439 57.098 27.881 3.449-.622 6.962-.936 10.521-.936 32.484 0 58.912 26.428 58.912 58.911-.002 32.485-26.429 58.913-58.913 58.913z" fill="#fff4f4"/></g><path d="m351.303 170.994c-3.559 0-7.072.313-10.521.936-6.455-8.289-14.575-14.992-23.74-19.75v136.637h34.26c32.484 0 58.912-26.428 58.912-58.912 0-32.483-26.427-58.911-58.911-58.911z" fill="#f6efea"/></g></svg>