<svg id="Layer_1" enable-background="new 0 0 511.998 511.998" height="512" viewBox="0 0 511.998 511.998" width="512" xmlns="http://www.w3.org/2000/svg"><g><g><path d="m255.999 511.998c-38.849 0-93.687-55.304-132.053-107.06-23.045-31.087-42.61-64.045-56.581-95.312-16.168-36.185-24.366-68.694-24.366-96.626 0-117.448 95.551-213 213-213 117.448 0 213 95.552 213 213 0 27.932-8.198 60.441-24.366 96.627-13.971 31.267-33.536 64.225-56.58 95.312-38.366 51.755-93.205 107.059-132.054 107.059z" fill="#ff435b"/></g><path d="m255.999 0v511.998c38.849 0 93.687-55.304 132.053-107.06 23.044-31.087 42.609-64.045 56.58-95.312 16.168-36.186 24.366-68.695 24.366-96.627.001-117.447-95.55-212.999-212.999-212.999z" fill="#cc2e43"/><g><path d="m292.801 247.099c-3.421 0-6.841-1.166-9.627-3.497l-15.937-13.337-20.699-1.838c-7.236-.643-12.971-6.378-13.614-13.614l-1.839-20.699-13.337-15.938c-4.662-5.57-4.662-13.682 0-19.253l13.337-15.937 1.839-20.699c.643-7.236 6.378-12.972 13.614-13.614l20.699-1.838 15.937-13.337c5.572-4.662 13.682-4.662 19.254 0l15.937 13.337 20.699 1.838c7.235.643 12.972 6.379 13.614 13.614l1.838 20.699 13.337 15.937c4.662 5.571 4.663 13.683.001 19.254l-13.338 15.938-1.838 20.699c-.643 7.235-6.379 12.972-13.614 13.614l-20.699 1.838-15.937 13.337c-2.786 2.33-6.206 3.496-9.627 3.496z" fill="#fdbf00"/></g><path d="m367.853 158.922-13.337-15.937-1.838-20.699c-.643-7.235-6.379-12.972-13.614-13.614l-20.699-1.838-15.937-13.337c-5.572-4.662-13.682-4.662-19.254 0l-15.937 13.337-11.238.998v121.435l11.238.998 15.937 13.337c2.786 2.331 6.206 3.497 9.627 3.497s6.841-1.166 9.627-3.497l15.937-13.337 20.699-1.838c7.235-.643 12.972-6.379 13.614-13.614l1.838-20.699 13.338-15.938c4.662-5.572 4.661-13.683-.001-19.254z" fill="#ff8856"/><g><path d="m298.438 316.001h-77.24c-44.415 0-80.549-36.135-80.549-80.55s36.134-80.55 80.549-80.55c25.56 0 49.244 12.03 64.329 32.059 4.222-.851 8.536-1.278 12.911-1.278 35.929 0 65.159 29.23 65.159 65.159.001 35.93-29.23 65.16-65.159 65.16z" fill="#fff4f4"/></g><path d="m298.438 185.682c-4.375 0-8.689.428-12.911 1.278-7.835-10.403-17.995-18.642-29.528-24.164v153.205h42.439c35.929 0 65.159-29.23 65.159-65.16.001-35.929-29.23-65.159-65.159-65.159z" fill="#f6efea"/></g></svg>