<svg id="Layer_1" enable-background="new 0 0 512.108 512.108" height="512" viewBox="0 0 512.108 512.108" width="512" xmlns="http://www.w3.org/2000/svg"><g><g><g><path d="m485.013 357h-354c-8.284 0-15-6.716-15-15v-319c0-8.284 6.716-15 15-15h354c8.284 0 15 6.716 15 15v319c0 8.284-6.716 15-15 15z" fill="#fff4f4"/></g></g><path d="m485.013 8h-177v349h177c8.284 0 15-6.716 15-15v-319c0-8.284-6.716-15-15-15z" fill="#f6efea"/><g><path d="m497.096 30h-378.165c-8.284 0-15-6.716-15-15s6.716-15 15-15h378.165c8.284 0 15 6.716 15 15s-6.716 15-15 15z" fill="#00429d"/></g><g><path d="m369.263 189c-2.966 0-5.932-1.011-8.348-3.033l-11.708-9.798-15.208-1.351c-6.274-.558-11.248-5.532-11.805-11.806l-1.351-15.207-9.798-11.708c-4.043-4.831-4.043-11.865 0-16.696l9.798-11.708 1.351-15.207c.557-6.275 5.531-11.249 11.806-11.806l15.207-1.35 11.708-9.798c4.831-4.043 11.864-4.043 16.695 0l11.708 9.798 15.207 1.35c6.275.557 11.249 5.531 11.806 11.806l1.351 15.207 9.798 11.708c4.043 4.831 4.043 11.865 0 16.696l-9.798 11.708-1.351 15.207c-.557 6.274-5.531 11.248-11.805 11.806l-15.208 1.351-11.708 9.798c-2.415 2.022-5.381 3.033-8.347 3.033z" fill="#ff8856"/></g><g><path d="m364.816 268.085h-67.619c-39.913 0-72.384-32.472-72.384-72.384 0-39.913 32.472-72.385 72.384-72.385 22.571 0 43.516 10.44 57.098 27.881 3.449-.622 6.962-.936 10.521-.936 32.484 0 58.912 26.428 58.912 58.912s-26.428 58.912-58.912 58.912z" fill="#f6efea"/></g><path d="m364.816 150.262c-3.558 0-7.072.313-10.521.936-11.382-14.615-27.936-24.311-46.283-27.069v143.957h56.803c32.484 0 58.912-26.428 58.912-58.911.001-32.486-26.427-58.913-58.911-58.913z" fill="#eee1dc"/><path d="m497.096 0h-189.083v30h189.083c8.284 0 15-6.716 15-15s-6.716-15-15-15z" fill="#00347b"/><g><path d="m26.153 347.379c-6.944.001-13.262-1.55-18.641-4.655-4.641-2.68-7.5-7.631-7.5-12.99v-37.017c0-53.271 43.339-96.61 96.611-96.61h44.09c5.659 0 10.835 3.185 13.388 8.234 2.552 5.051 2.045 11.107-1.312 15.663l-58.621 79.566c-6.704 19.519-26.7 35.333-44.274 42.612-8.359 3.464-16.399 5.197-23.741 5.197z" fill="#fdbf00"/></g><g><path d="m17.354 512.108c-3.978 0-7.793-1.58-10.606-4.394-2.813-2.813-4.394-6.628-4.394-10.606v-37.502c0-71.958 58.542-130.5 130.5-130.5s130.5 58.542 130.5 130.5v37.499c0 8.284-6.716 15-15 15zm230.999-15.003h.01z" fill="#ff8856"/></g><path d="m132.853 329.106v183l115.5-.001c8.284 0 15-6.716 15-15v-37.499c0-71.958-58.542-130.5-130.5-130.5z" fill="#ff435b"/><path clip-rule="evenodd" d="m133.05 311.106c16.5 0 30 13.5 30 30v23c0 16.5-13.5 30-30 30-16.501 0-30-13.5-30-30v-23c-.001-16.5 13.499-30 30-30z" fill="#fdd1a3" fill-rule="evenodd"/><path clip-rule="evenodd" d="m133.049 311.106c-.066 0-.13.005-.196.005v82.99c.066 0 .13.005.196.005 16.5 0 30-13.5 30-30v-23c.001-16.5-13.499-30-30-30z" fill="#ffbb85" fill-rule="evenodd"/><path d="m133.049 409.106c-24.813 0-45-20.187-45-45v-23.001c0-24.813 20.187-44.999 45-44.999s45 20.187 45 44.999v23.001c0 24.814-20.187 45-45 45zm0-83c-8.271 0-15 6.729-15 14.999v23.001c0 8.271 6.729 15 15 15s15-6.729 15-15v-23.001c0-8.27-6.729-14.999-15-14.999z" fill="#ff435b"/><path d="m133.049 296.106c-.066 0-.13.005-.196.005v30.005c.066-.001.13-.01.196-.01 8.271 0 15 6.729 15 14.999v23.001c0 8.271-6.729 15-15 15-.066 0-.13-.009-.196-.01v30.005c.066 0 .13.005.196.005 24.813 0 45-20.187 45-45v-23.001c0-24.812-20.187-44.999-45-44.999z" fill="#cc2e43"/><g><path d="m133.05 359.105c-44.985 0-81.583-36.598-81.583-81.583 0-4.892.433-9.685 1.262-14.342 6.797-38.17 156.668-35.653 161.362 4.902.359 3.098.543 6.248.543 9.44-.001 44.986-36.599 81.583-81.584 81.583z" fill="#ffe4c1"/></g><path d="m214.091 268.083c-2.374-20.511-41.883-31.286-81.237-31.995v123.013c.066 0 .131.005.197.005 44.985 0 81.583-36.598 81.583-81.583-.001-3.193-.185-6.343-.543-9.44z" fill="#fdd1a3"/><path d="m51.653 272.286c7.236 1.157 14.731 1.752 22.367 1.752 22.926 0 43.608-5.416 58.834-14.636 15.226 9.222 37.03 14.636 59.955 14.636 7.377 0 14.632-.556 21.647-1.639-2.655-42.606-38.143-76.46-81.406-76.46-43.225-.001-78.686 33.794-81.397 76.347z" fill="#ffde46"/><path d="m133.05 195.938c-.066 0-.131.005-.197.005v63.458c15.226 9.222 37.03 14.636 59.955 14.636 7.377 0 14.632-.556 21.647-1.639-2.654-42.605-38.142-76.46-81.405-76.46z" fill="#ffcd00"/></g></svg>